<!DOCTYPE svg PUBLIC "-//W3C//DTD SVG 1.1//EN" "http://www.w3.org/Graphics/SVG/1.1/DTD/svg11.dtd">

<!-- Uploaded to: SVG Repo, www.svgrepo.com, Transformed by: SVG Repo Mixer Tools -->
<svg fill="#42b883" width="800px" height="800px" viewBox="0 0 64 64" version="1.1" xmlns="http://www.w3.org/2000/svg" xmlns:xlink="http://www.w3.org/1999/xlink" xml:space="preserve" xmlns:serif="http://www.serif.com/" style="fill-rule: evenodd; stroke-linejoin: round; clip-rule: evenodd; stroke-miterlimit: 2" stroke="#46e6d1">

<g id="SVGRepo_bgCarrier" stroke-width="0"/>

<g id="SVGRepo_tracerCarrier" stroke-linecap="round" stroke-linejoin="round"/>

<g id="SVGRepo_iconCarrier"> <rect id="Icons" x="-640.8" y="-1.2" width="1280" height="800" style="fill: none"/> <g id="Icons1" serif:id="Icons"> <g id="Strike"> </g> <g id="H1"> </g> <g id="H2"> </g> <g id="H3"> </g> <g id="list-ul"> </g> <g id="hamburger-1"> </g> <g id="hamburger-2"> </g> <g id="list-ol"> </g> <g id="list-task"> </g> <path id="quote-1" d="M 26.4 10.8 l 0 8 c -2.5 0.1 -4.5 0.6 -5.8 1.4 c -1.3 0.8 -2.2 2.1 -2.7 3.8 c -0.5 1.8 -0.8 4.3 -0.8 7.6 l 9.3 0 l 0 19.1 l -19.1 0 l 0 -18.2 c 0 -7.5 1.6 -13 4.8 -16.5 c 3.2 -3.5 8 -5.2 14.2 -5.2 Z m 28.8 0 l 0 8 c -2.5 0.1 -4.5 0.6 -5.8 1.3 c -1.3 0.8 -2.2 2 -2.8 3.8 c -0.6 1.8 -0.9 4.3 -0.9 7.6 l 9.5 0 l 0 19.1 l -19.2 0 l 0 -18.2 c 0 -7.5 1.6 -13 4.8 -16.5 c 3.2 -3.5 8 -5.2 14.4 -5.2 Z" style="fill-rule: nonzero"/> <g id="trash"> </g> <g id="vertical-menu"> </g> <g id="horizontal-menu"> </g> <g id="sidebar-2"> </g> <g id="Pen"> </g> <g id="Pen1" serif:id="Pen"> </g> <g id="clock"> </g> <g id="external-link"> </g> <g id="hr"> </g> <g id="info"> </g> <g id="warning"> </g> <g id="plus-circle"> </g> <g id="minus-circle"> </g> <g id="vue"> </g> <g id="cog"> </g> <g id="logo"> </g> <g id="radio-check"> </g> <g id="eye-slash"> </g> <g id="eye"> </g> <g id="toggle-off"> </g> <g id="shredder"> </g> <g id="spinner--loading--dots-" serif:id="spinner [loading, dots]"> </g> <g id="react"> </g> <g id="check-selected"> </g> <g id="turn-off"> </g> <g id="code-block"> </g> <g id="user"> </g> <g id="coffee-bean"> </g> <g id="coffee-beans"> <g id="coffee-bean1" serif:id="coffee-bean"> </g> </g> <g id="coffee-bean-filled"> </g> <g id="coffee-beans-filled"> <g id="coffee-bean2" serif:id="coffee-bean"> </g> </g> <g id="clipboard"> </g> <g id="clipboard-paste"> </g> <g id="clipboard-copy"> </g> <g id="Layer1"> </g> </g> </g>

</svg>